<?xml version="1.0" standalone="no"?>
<!DOCTYPE svg PUBLIC "-//W3C//DTD SVG 20010904//EN"
 "http://www.w3.org/TR/2001/REC-SVG-20010904/DTD/svg10.dtd">
<svg version="1.0" xmlns="http://www.w3.org/2000/svg"
 width="392.000000pt" height="81.000000pt" viewBox="0 0 392.000000 81.000000"
 preserveAspectRatio="xMidYMid meet">

<g transform="translate(0.000000,81.000000) scale(0.100000,-0.100000)"
fill="#000000" stroke="none">
<path d="M980 550 c0 -29 2 -30 45 -30 43 0 45 1 45 30 0 29 -2 30 -45 30 -43
0 -45 -1 -45 -30z"/>
<path d="M1530 523 c0 -44 -3 -54 -12 -45 -7 7 -31 12 -54 12 -34 0 -49 -6
-73 -31 -26 -26 -31 -38 -31 -80 0 -55 20 -103 49 -119 27 -14 94 -13 109 2 9
9 12 9 12 0 0 -8 17 -12 45 -12 l45 0 0 165 0 165 -45 0 -45 0 0 -57z m0 -153
c0 -42 -24 -66 -53 -54 -33 12 -31 99 1 107 33 7 52 -12 52 -53z"/>
<path d="M1650 550 c0 -29 2 -30 45 -30 43 0 45 1 45 30 0 29 -2 30 -45 30
-43 0 -45 -1 -45 -30z"/>
<path d="M771 474 c-55 -46 -29 -112 54 -133 25 -6 45 -16 45 -21 0 -14 -56
-13 -82 1 -18 10 -24 8 -39 -12 -24 -31 -24 -34 9 -48 80 -37 185 -18 198 36
12 47 -7 76 -64 99 -72 29 -76 38 -15 31 45 -5 54 -3 63 13 5 10 10 23 10 28
0 16 -50 32 -100 32 -38 0 -55 -6 -79 -26z"/>
<path d="M1210 483 c-17 -12 -25 -13 -28 -5 -2 7 -23 12 -48 12 l-45 0 3 -117
3 -118 43 -3 42 -3 0 66 c0 75 12 105 40 105 28 0 40 -30 40 -104 l0 -66 40 0
40 0 0 100 c0 94 -2 103 -25 125 -28 29 -70 32 -105 8z"/>
<path d="M1801 465 c-21 -19 -41 -48 -44 -64 -25 -121 128 -206 228 -127 l28
23 -32 22 c-25 18 -35 20 -46 11 -39 -32 -103 16 -86 63 13 34 36 43 73 29 27
-10 36 -9 59 6 16 10 25 22 21 28 -19 27 -60 44 -109 44 -46 0 -58 -4 -92 -35z"/>
<path d="M2063 480 c-85 -51 -81 -174 8 -222 65 -35 143 -13 186 51 27 39 29
68 9 116 -29 69 -133 98 -203 55z m111 -81 c5 -14 6 -38 2 -53 -6 -24 -11 -27
-39 -24 -29 3 -32 6 -35 41 -2 21 2 45 9 53 18 22 52 13 63 -17z"/>
<path d="M2402 484 c-12 -8 -22 -10 -22 -5 0 6 -20 11 -45 11 l-45 0 0 -120 0
-120 45 0 45 0 0 69 c0 82 6 101 30 101 24 0 30 -19 30 -101 l0 -69 45 0 44 0
3 82 c3 72 6 83 22 86 28 6 36 -15 36 -95 l0 -73 45 0 45 0 0 94 c0 87 -2 97
-26 125 -31 37 -69 41 -108 10 l-27 -21 -23 21 c-26 25 -63 27 -94 5z"/>
<path d="M2836 493 c-4 -4 -36 -6 -71 -5 l-65 3 0 -156 0 -155 45 0 45 0 0 50
c0 28 2 50 4 50 1 0 17 -5 34 -11 44 -15 98 4 122 43 l18 30 16 -31 c26 -50
50 -59 159 -59 l97 -1 0 120 0 119 -45 0 c-25 0 -45 -5 -45 -10 0 -7 -6 -7
-19 0 -51 27 -131 -2 -150 -54 -8 -19 -9 -19 -24 10 -22 42 -99 79 -121 57z
m22 -75 c13 -13 16 -47 6 -72 -10 -26 -53 -20 -66 9 -22 49 25 98 60 63z m288
-24 c14 -55 -17 -95 -57 -74 -23 13 -26 71 -4 93 20 21 54 10 61 -19z"/>
<path d="M3380 483 c-17 -12 -25 -13 -28 -5 -2 7 -23 12 -48 12 l-45 0 3 -117
3 -118 43 -3 42 -3 0 73 c0 76 9 98 42 98 26 0 38 -32 38 -104 l0 -66 40 0 40
0 0 100 c0 94 -2 103 -25 125 -28 29 -70 32 -105 8z"/>
<path d="M3842 484 c-12 -8 -22 -26 -22 -38 0 -54 77 -64 95 -12 8 24 6 31
-14 47 -28 23 -31 23 -59 3z m52 -20 c9 -23 7 -34 -4 -34 -5 0 -7 7 -4 15 5
11 1 14 -12 9 -16 -5 -16 -4 -4 5 13 9 13 11 -2 11 -13 0 -18 -8 -19 -27 -1
-18 -3 -22 -6 -10 -3 10 -2 25 1 33 7 19 42 18 50 -2z m-19 -44 c3 -5 1 -10
-4 -10 -6 0 -11 5 -11 10 0 6 2 10 4 10 3 0 8 -4 11 -10z"/>
<path d="M980 370 l0 -120 45 0 45 0 0 120 0 120 -45 0 -45 0 0 -120z"/>
<path d="M1650 370 l0 -120 45 0 45 0 0 120 0 120 -45 0 -45 0 0 -120z"/>
<path d="M3510 484 c0 -3 21 -55 46 -117 42 -104 44 -112 28 -124 -10 -7 -24
-13 -31 -13 -8 0 -13 -12 -13 -31 0 -31 0 -32 43 -26 65 9 113 68 160 199 20
58 37 108 37 112 0 3 -22 6 -50 6 l-49 0 -16 -55 c-9 -30 -18 -55 -20 -55 -3
0 -12 25 -20 55 l-16 55 -50 0 c-27 0 -49 -3 -49 -6z"/>
</g>
</svg>
